HIERARCHY
ROOT root     
{
	OFFSET 0.0000 0.0000 0.0000
	CHANNELS 6 Xposition Yposition Zposition Zrotation Yrotation Xrotation
	JOINT pelvis   
	{
		OFFSET 0.0000 0.0000 0.0000
		CHANNELS 3 Zrotation Yrotation Xrotation
		JOINT thorax   
		{
			OFFSET 0.0000 23.0750 -5.0000
			CHANNELS 3 Zrotation Yrotation Xrotation
			JOINT rclavicle
			{
				OFFSET 0.0000 28.0009 0.0000
				CHANNELS 3 Zrotation Yrotation Xrotation
				JOINT rhumerus 
				{
					OFFSET -18.5725 5.5939 0.0000
					CHANNELS 3 Zrotation Yrotation Xrotation
					JOINT rradius  
					{
						OFFSET -24.8459 0.0000 0.0000
						CHANNELS 3 Zrotation Yrotation Xrotation
						JOINT rhand    
						{
							OFFSET -24.5477 0.0000 0.0000
							CHANNELS 3 Zrotation Yrotation Xrotation
							End Site
							{
								OFFSET -8.1826 0.0000 0.0000
							}
						}
					}
				}
			}
			JOINT lclavicle
			{
				OFFSET 0.0000 28.0009 0.0000
				CHANNELS 3 Zrotation Yrotation Xrotation
				JOINT lhumerus 
				{
					OFFSET 18.5725 5.5939 0.0000
					CHANNELS 3 Zrotation Yrotation Xrotation
					JOINT lradius  
					{
						OFFSET 24.8459 0.0000 0.0000
						CHANNELS 3 Zrotation Yrotation Xrotation
						JOINT lhand    
						{
							OFFSET 24.5477 0.0000 0.0000
							CHANNELS 3 Zrotation Yrotation Xrotation
							End Site
							{
								OFFSET 8.1826 0.0000 0.0000
							}
						}
					}
				}
			}
			JOINT head     
			{
				OFFSET 0.0000 35.2030 0.0000
				CHANNELS 3 Zrotation Yrotation Xrotation
				End Site
				{
					OFFSET 0.0000 11.7343 0.0000
				}
			}
		}
		JOINT rfemur   
		{
			OFFSET -8.2817 0.0000 0.0000
			CHANNELS 3 Zrotation Yrotation Xrotation
			JOINT rtibia   
			{
				OFFSET 0.0000 -43.3627 0.0000
				CHANNELS 3 Zrotation Yrotation Xrotation
				JOINT rfoot    
				{
					OFFSET 0.0000 -38.2947 0.0000
					CHANNELS 3 Zrotation Yrotation Xrotation
					JOINT rtoes    
					{
						OFFSET 0.0000 0.0000 16.6054
						CHANNELS 3 Zrotation Yrotation Xrotation
						End Site
						{
							OFFSET 0.0000 0.0000 5.5351
						}
					}
				}
			}
		}
		JOINT lfemur   
		{
			OFFSET 8.2817 0.0000 0.0000
			CHANNELS 3 Zrotation Yrotation Xrotation
			JOINT ltibia   
			{
				OFFSET 0.0000 -43.3627 0.0000
				CHANNELS 3 Zrotation Yrotation Xrotation
				JOINT lfoot    
				{
					OFFSET 0.0000 -38.2947 0.0000
					CHANNELS 3 Zrotation Yrotation Xrotation
					JOINT ltoes    
					{
						OFFSET 0.0000 0.0000 16.6054
						CHANNELS 3 Zrotation Yrotation Xrotation
						End Site
						{
							OFFSET 0.0000 0.0000 5.5351
						}
					}
				}
			}
		}
	}
}
MOTION
Frames: 11
Frame Time: .0333333
96.344 63.635 13.347 62.1773 -84.6465 -7.76923 0 -0 0 1.29204 -7.72809 4.46017 27.1609 -4.62658 -2.81666e-07 59.3128 12.606 -31.636 -0 16.7521 -0 -37.5457 18.9669 -6.49929 -25.5687 6.75279 -5.52559e-05 -56.7088 -5.78148 -18.2179 0 -22.2746 0 43.7366 -6.39245 -2.56793 2.69327 -0.404465 -48.5364 -1.41928 -8.007 -102.727 -0 -0 90.1873 2.79642e-05 -13.1252 -23.8608 5.38819 -5.00765e-05 -53.722 -1.69897 -4.4123 -102.662 -0 -0 87.4178 0.000164646 19.0585 -26.0568 -8.62931 -8.56675e-05 -31.9601 
96.173 63.421 13.372 62.8527 -84.6095 -8.1988 0 -0 0 1.34813 -7.77155 4.43217 27.2039 -4.581 1.47727e-05 59.263 12.6297 -31.5923 -0 16.7974 -0 -37.5361 18.8347 -6.45158 -25.678 6.64996 -1.92062e-05 -56.6118 -5.87426 -18.2365 0 -22.1963 0 43.6626 -6.26 -2.50989 2.59981 -0.4135 -48.538 -1.46798 -8.0645 -103.066 -0 -0 90.6797 3.51002e-05 -13.2241 -24.1414 5.48957 2.4793e-05 -53.9783 -1.80066 -4.44979 -102.991 -0 -0 87.8927 -6.45629e-05 19.2562 -26.2299 -8.77695 -6.31377e-05 -32.2873 
95.987 63.213 13.398 63.6089 -84.571 -8.72868 0 -0 0 1.38131 -7.81094 4.40407 27.257 -4.54455 -1.6636e-05 59.2239 12.6725 -31.5265 -0 16.8332 -0 -37.5225 18.7382 -6.41552 -25.7661 6.54526 -3.35968e-05 -56.5414 -5.99574 -18.2396 0 -22.0935 0 43.5839 -6.11332 -2.44604 2.52115 -0.426473 -48.544 -1.52333 -8.12058 -103.365 -0 -0 91.1604 -1.85132e-06 -13.334 -24.4339 5.59934 3.073e-05 -54.2006 -1.9089 -4.48772 -103.278 -0 -0 88.3541 -0.000105902 19.4564 -26.4002 -8.92662 -6.2575e-05 -32.6305 
95.786 63.012 13.429 64.605 -84.523 -9.51047 0 -0 0 1.37284 -7.85438 4.36272 27.3189 -4.49879 1.88512e-05 59.2004 12.7078 -31.4482 -0 16.8726 -0 -37.5108 18.6791 -6.39291 -25.8281 6.41644 5.43794e-05 -56.4957 -6.10251 -18.2315 0 -21.9931 0 43.5024 -5.94533 -2.3739 2.46331 -0.441367 -48.5497 -1.59758 -8.18627 -103.632 -0 -0 91.6328 -4.98415e-05 -13.4458 -24.7398 5.7137 6.07335e-06 -54.3849 -2.03121 -4.53852 -103.522 -0 -0 88.7955 6.79883e-05 19.6594 -26.5748 -9.08048 -6.02603e-05 -32.9683 
95.569 62.819 13.46 65.706 -84.4772 -10.4211 0 -0 0 1.33596 -7.89527 4.31861 27.3909 -4.45956 2.62406e-05 59.1885 12.7619 -31.3497 -0 16.8922 -0 -37.5048 18.6673 -6.38768 -25.8689 6.29131 1.12149e-05 -56.4761 -6.2389 -18.1998 1.23401e-07 -21.8693 -6.38727e-07 43.421 -5.77965 -2.3029 2.42567 -0.459246 -48.5664 -1.68859 -8.24981 -103.858 -0 -0 92.0905 8.6252e-05 -13.5607 -25.0669 5.83465 3.80673e-05 -54.5057 -2.15636 -4.59361 -103.719 -0 -0 89.2189 0.000141018 19.8561 -26.7672 -9.238 -4.81743e-06 -33.2767 
95.336 62.635 13.493 66.8598 -84.4272 -11.3978 0 -0 0 1.27945 -7.93559 4.26627 27.4679 -4.41557 -7.41767e-06 59.187 12.8213 -31.2373 -0 16.8982 -0 -37.5054 18.6961 -6.3977 -25.8935 6.15641 5.27765e-06 -56.4787 -6.38191 -18.1479 1.22565e-07 -21.7399 -6.38275e-07 43.3415 -5.61718 -2.23349 2.40491 -0.480363 -48.5915 -1.79704 -8.31019 -104.037 -0 -0 92.5354 -3.66192e-05 -13.6741 -25.4177 5.96143 -5.04203e-06 -54.5644 -2.27753 -4.65444 -103.871 -0 -0 89.6245 -9.56121e-05 20.0447 -26.9844 -9.40005 -2.83855e-05 -33.5438 
95.085 62.463 13.525 68.0202 -84.3684 -12.3932 0 -0 0 1.21399 -7.97496 4.20291 27.5459 -4.36456 1.50413e-05 59.1963 12.8857 -31.1141 -0 16.8877 -0 -37.5162 18.7552 -6.42028 -25.9089 6.01393 3.08178e-05 -56.4969 -6.53306 -18.0745 0 -21.6021 0 43.264 -5.46684 -2.16938 2.39733 -0.504885 -48.6257 -1.92024 -8.3645 -104.171 -0 -0 92.9596 -3.13602e-05 -13.7873 -25.7901 6.0939 -1.95218e-05 -54.5702 -2.38762 -4.72013 -103.978 -0 -0 90.0092 -0.000223346 20.2229 -27.2313 -9.56774 -2.20199e-05 -33.7604 
94.816 62.304 13.557 69.1553 -84.3114 -13.3802 0 -0 0 1.14435 -8.01581 4.1258 27.6221 -4.30504 -4.17541e-05 59.215 12.9524 -30.9804 -0 16.8611 -0 -37.5332 18.8349 -6.45114 -25.9213 5.86619 5.81624e-05 -56.5305 -6.69378 -17.9798 1.20763e-07 -21.4588 -6.37334e-07 43.1903 -5.33557 -2.11327 2.40061 -0.53347 -48.6652 -2.05824 -8.41443 -104.255 -0 -0 93.3635 3.24822e-05 -13.9001 -26.1792 6.2309 -6.70945e-05 -54.5407 -2.48373 -4.79444 -104.04 -0 -0 90.37 -0.000176269 20.3943 -27.5084 -9.74315 -6.99593e-05 -33.9267 
94.53 62.159 13.587 70.1477 -84.2637 -14.2388 0 -0 0 1.08766 -8.05243 4.0317 27.689 -4.23704 1.93809e-05 59.2414 13.0214 -30.8387 -0 16.817 -0 -37.5541 18.9188 -6.4842 -25.9386 5.71342 -1.79943e-05 -56.5726 -6.86574 -17.8615 0 -21.307 0 43.119 -5.22886 -2.06718 2.40848 -0.568344 -48.7093 -2.20184 -8.45174 -104.291 -0 -0 93.7409 3.42508e-05 -14.0172 -26.5806 6.37371 8.86709e-06 -54.4961 -2.55569 -4.87176 -104.06 -0 -0 90.7103 -0.00010068 20.5637 -27.8123 -9.92799 1.66891e-05 -34.0509 
94.224 62.031 13.618 71.0811 -84.2078 -15.0489 0 -0 0 1.0352 -8.09701 3.91592 27.7496 -4.1529 -8.1222e-06 59.2752 13.0845 -30.6964 -0 16.7614 -0 -37.5747 18.9918 -6.5134 -25.9617 5.54943 1.77627e-05 -56.6206 -7.03451 -17.724 1.18849e-07 -21.1578 -6.36355e-07 43.0487 -5.14215 -2.02922 2.42046 -0.606532 -48.7514 -2.3563 -8.49041 -104.277 -0 -0 94.089 0.000129965 -14.1404 -26.9813 6.52057 -4.27828e-05 -54.4767 -2.60967 -4.96736 -104.039 -0 -0 91.0208 7.69432e-05 20.7452 -28.1336 -10.1264 -1.0319e-05 -34.1467 
93.9 61.92 13.646 71.8211 -84.1551 -15.6714 0 -0 0 1.01084 -8.13613 3.77874 27.7981 -4.05968 4.51825e-07 59.3133 13.1484 -30.5503 -9.15028e-08 16.6955 -6.23597e-07 -37.5921 19.0416 -6.5341 -25.9984 5.37924 -3.6759e-05 -56.6728 -7.21612 -17.566 0 -21.0016 0 42.9769 -5.07903 -2.00061 2.42876 -0.652132 -48.7903 -2.50687 -8.51367 -104.212 -0 -0 94.4002 0.000169514 -14.2829 -27.3715 6.67544 -1.34095e-05 -54.495 -2.63098 -5.0677 -103.978 -0 -0 91.3031 9.04507e-05 20.9455 -28.4627 -10.3385 4.33993e-05 -34.2296 
